{
    "asset": {
        "version": "2.0",
        "generator": "Open Asset Import Library (assimp v5.4.0)"
    },
    "extensionsUsed": [
        "KHR_materials_volume",
        "FB_ngon_encoding"
    ],
    "accessors": [
        {
            "bufferView": 0,
            "byteOffset": 0,
            "componentType": 5126,
            "count": 1111,
            "type": "VEC3",
            "max": [
                0.29267048835754395,
                1.8009414672851563,
                3.7631537914276123
            ],
            "min": [
                -0.6927340030670166,
                -3.921773910522461,
                3.3979640007019043
            ]
        },
        {
            "bufferView": 1,
            "byteOffset": 0,
            "componentType": 5126,
            "count": 1111,
            "type": "VEC3",
            "max": [
                1.0,
                1.0,
                0.9999535083770752
            ],
            "min": [
                -1.0,
                -1.0,
                -0.9989137649536133
            ]
        },
        {
            "bufferView": 2,
            "byteOffset": 0,
            "componentType": 5126,
            "count": 1111,
            "type": "VEC2",
            "max": [
                0.9827109575271606,
                0.9634985327720642
            ],
            "min": [
                0.02783787250518799,
                0.016378462314605713
            ]
        },
        {
            "bufferView": 3,
            "byteOffset": 0,
            "componentType": 5126,
            "count": 1111,
            "type": "VEC2",
            "max": [
                0.9827109575271606,
                0.9634985327720642
            ],
            "min": [
                0.02783787250518799,
                0.016378462314605713
            ]
        },
        {
            "bufferView": 4,
            "byteOffset": 0,
            "componentType": 5125,
            "count": 4584,
            "type": "SCALAR",
            "max": [
                1110
            ],
            "min": [
                0
            ]
        },
        {
            "bufferView": 5,
            "byteOffset": 0,
            "componentType": 5126,
            "count": 3337,
            "type": "VEC3",
            "max": [
                0.49261438846588135,
                4.075894832611084,
                3.942145824432373
            ],
            "min": [
                -0.5925741195678711,
                -3.906759262084961,
                3.199840545654297
            ]
        },
        {
            "bufferView": 6,
            "byteOffset": 0,
            "componentType": 5126,
            "count": 3337,
            "type": "VEC3",
            "max": [
                1.0,
                1.0,
                1.0
            ],
            "min": [
                -1.0,
                -1.0,
                -1.0
            ]
        },
        {
            "bufferView": 7,
            "byteOffset": 0,
            "componentType": 5126,
            "count": 3337,
            "type": "VEC2",
            "max": [
                0.8115030527114868,
                0.9821101427078247
            ],
            "min": [
                0.027570128440856934,
                0.03275132179260254
            ]
        },
        {
            "bufferView": 8,
            "byteOffset": 0,
            "componentType": 5126,
            "count": 3337,
            "type": "VEC2",
            "max": [
                0.8115030527114868,
                0.9821101427078247
            ],
            "min": [
                0.027570128440856934,
                0.03275132179260254
            ]
        },
        {
            "bufferView": 9,
            "byteOffset": 0,
            "componentType": 5125,
            "count": 12972,
            "type": "SCALAR",
            "max": [
                3336
            ],
            "min": [
                0
            ]
        }
    ],
    "buffers": [
        {
            "byteLength": 248144,
            "uri": "katana_0.bin"
        }
    ],
    "bufferViews": [
        {
            "buffer": 0,
            "byteOffset": 0,
            "byteLength": 13332,
            "target": 34962
        },
        {
            "buffer": 0,
            "byteOffset": 13332,
            "byteLength": 13332,
            "target": 34962
        },
        {
            "buffer": 0,
            "byteOffset": 26664,
            "byteLength": 8888,
            "target": 34962
        },
        {
            "buffer": 0,
            "byteOffset": 35552,
            "byteLength": 8888,
            "target": 34962
        },
        {
            "buffer": 0,
            "byteOffset": 44440,
            "byteLength": 18336,
            "target": 34963
        },
        {
            "buffer": 0,
            "byteOffset": 62776,
            "byteLength": 40044,
            "target": 34962
        },
        {
            "buffer": 0,
            "byteOffset": 102820,
            "byteLength": 40044,
            "target": 34962
        },
        {
            "buffer": 0,
            "byteOffset": 142864,
            "byteLength": 26696,
            "target": 34962
        },
        {
            "buffer": 0,
            "byteOffset": 169560,
            "byteLength": 26696,
            "target": 34962
        },
        {
            "buffer": 0,
            "byteOffset": 196256,
            "byteLength": 51888,
            "target": 34963
        }
    ],
    "images": [
        {
            "uri": "textures/image_1.png"
        },
        {
            "uri": "textures/image_0.png"
        },
        {
            "uri": "textures/image_2.png"
        }
    ],
    "materials": [
        {
            "name": "lambert1",
            "pbrMetallicRoughness": {
                "baseColorTexture": {
                    "index": 0
                },
                "metallicRoughnessTexture": {
                    "index": 1
                }
            },
            "normalTexture": {
                "index": 2
            },
            "occlusionTexture": {
                "index": 1,
                "texCoord": 1
            },
            "doubleSided": true
        }
    ],
    "meshes": [
        {
            "name": "meshes[0]",
            "primitives": [
                {
                    "mode": 4,
                    "material": 0,
                    "indices": 4,
                    "attributes": {
                        "POSITION": 0,
                        "NORMAL": 1,
                        "TEXCOORD_0": 2,
                        "TEXCOORD_1": 3
                    }
                }
            ]
        },
        {
            "name": "meshes[1]",
            "primitives": [
                {
                    "mode": 4,
                    "material": 0,
                    "indices": 9,
                    "attributes": {
                        "POSITION": 5,
                        "NORMAL": 6,
                        "TEXCOORD_0": 7,
                        "TEXCOORD_1": 8
                    }
                }
            ]
        }
    ],
    "nodes": [
        {
            "name": "katana",
            "children": [
                1
            ]
        },
        {
            "name": "Sketchfab_model",
            "matrix": [
                1.0,
                0.0,
                0.0,
                0.0,
                0.0,
                2.220446049250313e-16,
                -1.0,
                0.0,
                0.0,
                1.0,
                2.220446049250313e-16,
                0.0,
                0.0,
                0.0,
                0.0,
                1.0
            ],
            "children": [
                2
            ],
            "extras": {
                "name": "Sketchfab_model"
            }
        },
        {
            "name": "SM_rbdfbx",
            "matrix": [
                0.009999999776482582,
                0.0,
                0.0,
                0.0,
                0.0,
                2.2204459996194763e-18,
                0.009999999776482582,
                0.0,
                0.0,
                -0.009999999776482582,
                2.2204459996194763e-18,
                0.0,
                0.0,
                0.0,
                0.0,
                1.0
            ],
            "children": [
                3
            ],
            "extras": {
                "name": "SM_rbd.fbx"
            }
        },
        {
            "name": "RootNode",
            "children": [
                4,
                6
            ],
            "extras": {
                "name": "RootNode"
            }
        },
        {
            "name": "polySurface38",
            "children": [
                5
            ],
            "extras": {
                "name": "polySurface38"
            }
        },
        {
            "name": "polySurface38_lambert1_0",
            "mesh": 0,
            "extras": {
                "name": "polySurface38_lambert1_0"
            }
        },
        {
            "name": "polySurface39",
            "children": [
                7
            ],
            "extras": {
                "name": "polySurface39"
            }
        },
        {
            "name": "polySurface39_lambert1_0",
            "mesh": 1,
            "extras": {
                "name": "polySurface39_lambert1_0"
            }
        }
    ],
    "samplers": [
        {
            "magFilter": 9729,
            "minFilter": 9987
        },
        {
            "magFilter": 9729,
            "minFilter": 9987
        },
        {
            "magFilter": 9729,
            "minFilter": 9987
        }
    ],
    "scenes": [
        {
            "nodes": [
                0
            ]
        }
    ],
    "textures": [
        {
            "source": 0,
            "sampler": 0
        },
        {
            "source": 1,
            "sampler": 1
        },
        {
            "source": 2,
            "sampler": 2
        }
    ],
    "scene": 0
}