<svg xmlns="http://www.w3.org/2000/svg" viewBox="0 0 800 400">
  <!-- Gradient Background -->
  <defs>
    <linearGradient id="moonGlow" x1="0%" y1="0%" x2="100%" y2="100%">
      <stop offset="0%" style="stop-color:#ff6b6b;stop-opacity:1" />
      <stop offset="100%" style="stop-color:#4ecdc4;stop-opacity:1" />
    </linearGradient>
    <filter id="noise" x="0%" y="0%" width="100%" height="100%">
      <feTurbulence type="fractalNoise" baseFrequency="0.015" numOctaves="3" result="noise"/>
      <feDisplacementMap in="SourceGraphic" in2="noise" scale="5"/>
    </filter>
  </defs>

  <!-- Base Background -->
  <rect width="800" height="400" fill="url(#moonGlow)" />
  
  <!-- Moon -->
  <circle cx="600" cy="100" r="60" fill="#FFF5DD" filter="url(#noise)" />
  
  <!-- Mountains in the background -->
  <path d="M0 250 L200 100 L400 280 L600 150 L800 250 L800 400 L0 400 Z" 
        fill="#2d3436" opacity="0.8" />
  
  <!-- Closer mountains -->
  <path d="M-100 300 L200 180 L500 320 L800 200 L900 300 L900 400 L-100 400 Z" 
        fill="#636e72" opacity="0.6" />

  <!-- "To The Moon" Text with fun style -->
  <text x="400" y="200" 
        font-family="Impact, fantasy" 
        font-size="48" 
        fill="white"
        text-anchor="middle"
        transform="rotate(-5, 400, 200)"
        style="filter: url(#noise)">
    TO THE MOON!
  </text>

  <!-- Rocket -->
  <g transform="translate(300, 250) rotate(-45)">
    <path d="M0 0 L20 40 L-20 40 Z" fill="#e74c3c" />
    <rect x="-15" y="40" width="30" height="50" fill="#ecf0f1" />
    <path d="M-15 90 L15 90 L0 110 Z" fill="#e74c3c" />
    <circle cx="0" cy="65" r="10" fill="#3498db" />
  </g>

  <!-- Stars -->
  <g fill="white" opacity="0.8">
    <circle cx="100" cy="50" r="2" />
    <circle cx="200" cy="80" r="1.5" />
    <circle cx="300" cy="40" r="2" />
    <circle cx="500" cy="60" r="1.5" />
    <circle cx="700" cy="90" r="2" />
    <circle cx="750" cy="40" r="1.5" />
  </g>
</svg>